<svg version="1.2" xmlns="http://www.w3.org/2000/svg" viewBox="0 0 400 400" width="400" height="400"><style>.a{fill:currentColor}</style><path class="a" d="m84.1 85.9l61.2 118.3q18.7-34.6 30.4-56.7 12.1-22.5 18.7-35.4 6.7-12.9 9.6-18.7 2.9-6.2 3.4-7.9 0.8-2.1 0.8-2.9 0-5-10.8-8.4-10.9-3.3-27.5-6.6l1.2-12.1q13.3 0.4 26.7 0.8 13.3 0.5 28.7 0.5 15.8 0 25-0.5 9.6-0.4 22.5-0.8l1.2 12.1q-18.7 3.7-26.2 8.3-7.1 4.6-11.3 12.1l-80.3 144.5q0.4 32 0.8 49.5 0.8 17.5 1.7 24.6 0.8 6.7 0.8 6.7 0.8 7.9 8.8 11.2 7.9 2.9 26.6 6.7l-1.2 12q-13-0.8-26.3-0.8-13.3-0.4-29.1-0.4-32.5 0-58.7 1.2l-1.3-12q18.8-3.8 27.5-6.7 8.7-3.3 9.6-11.2 0 0 0.4-7.1 0.8-7.1 1.7-24.6 0.8-17.9 0.8-48.7l-80.4-147.4q-3.7-7.1-10.4-10.4-6.2-3.8-25-7.5l1.3-12.1q13.3 0.4 26.6 0.8 13.4 0.5 28.8 0.5 32.4 0 58.7-1.3l1.2 12.1q-16.6 2.9-27 6.2-10 3.4-10 8.8 0 0.8 0 1.6 0.4 0.9 0.8 1.7zm216.5 12.9q-2.9-3.3-5.4-11.2-2.1-7.9-2.1-12.9 0-5.9 1.7-11.3 2.1-5.8 7.5-10 50.8 22.5 71.2 46.2 20.8 23.8 20.8 46.7 0 12.5-5.8 21.6-5.8 9.2-14.6 17.1-8.7 7.5-17.5 15.4-8.7 7.9-14.5 17.5-5.9 9.6-5.9 22.9 0 7.1 0.9 14.6 1.2 7.5 5.4 16.6l-15.9 3.8q-12.9-19.2-17.4-33.3-4.6-14.6-4.6-25 0-10.4 7.1-18.7 7-8.8 17.4-16.3 10.9-7.9 21.3-15.4 10.4-7.5 17.5-15.4 7-7.9 7-17.1 0-14.5-18.7-24.5-18.7-10.5-55.4-11.3zm33.3 246.9q-9.1 0-15.8-6.2-6.2-6.7-6.2-16.7 0-9.5 6.2-15.8 6.7-6.2 15.8-6.2 9.2 0 15.4 6.2 6.7 6.3 6.7 15.8 0 10-6.7 16.7-6.2 6.2-15.4 6.2z"/></svg>
